# xmcd CD database file
#
# Track frame offsets:
#	150
#	14957
#	30362
#	43084
#	55762
#	67292
#	79132
#	91731
#	103805
#	116816
#	129262
#	142119
#	154909
#	164738
#	174668
#	186057
#	196596
#	207170
#	217844
#	228344
#	238847
#	249098
#	259435
#	273608
#	286575
#
# Disc length: 3995 seconds
#
# Revision: 0
# Processed by: cddbd v1.5.2PL0 Copyright (c) Steve Scherf et al.
# Submitted via: CDex 1.51
#
DISCID=6f0f9919
DTITLE=Skeets Yaney - Hello Trouble
DYEAR=1900
DGENRE=Country
TTITLE0=When My Blue Moon Turns To Gold Again
TTITLE1=Under The Light Of Western Stars
TTITLE2=When I Lost You
TTITLE3=I'll Get Along Somehow
TTITLE4=All The World Is Lonely Now
TTITLE5=Don't You Tell A Soul
TTITLE6=You Can't Keep The Tears Out Of My Eyes
TTITLE7=Darling, What Is Life Without Love
TTITLE8=The Love I Threw Away
TTITLE9=Before You Break My Heart
TTITLE10=I Was Never Nearer Heaven In My Life
TTITLE11=After I'm Gone
TTITLE12=Hello Trouble
TTITLE13=Apple Of My Eye
TTITLE14=If It Was A Teardrop
TTITLE15=Meet Me In The Chapel
TTITLE16=Play Me That Old Song Again
TTITLE17=Never Can Be
TTITLE18=If You Don't Love Me (Please Leave Me Alone)
TTITLE19=I Saw You Cheatin' Last Night
TTITLE20=Ordinary
TTITLE21=Just What You Want Me To Do
TTITLE22=Faded Cactus Blossoms
TTITLE23=We'll Keep 'Em Flying
TTITLE24=End Of The World
EXTD=
EXTT0=
EXTT1=
EXTT2=
EXTT3=
EXTT4=
EXTT5=
EXTT6=
EXTT7=
EXTT8=
EXTT9=
EXTT10=
EXTT11=
EXTT12=
EXTT13=
EXTT14=
EXTT15=
EXTT16=
EXTT17=
EXTT18=
EXTT19=
EXTT20=
EXTT21=
EXTT22=
EXTT23=
EXTT24=
PLAYORDER=
